<svg width="37" height="20" viewBox="0 0 37 20" fill="none" xmlns="http://www.w3.org/2000/svg">
<path d="M34.4995 7.20001H33.3162L30.2229 2.0032L28.7762 2.7968L31.397 7.20001H22.602L25.2237 2.7968L23.7762 2.0032L20.6829 7.20001H19.4995C19.2395 7.20001 18.9954 7.3168 18.837 7.5144C18.6795 7.7128 18.627 7.9704 18.6954 8.2104L21.0279 16.4216C21.2254 17.116 21.887 17.6 22.6362 17.6H31.3637C32.112 17.6 32.7737 17.116 32.972 16.42L35.3045 8.20961C35.3729 7.96961 35.3212 7.71201 35.1629 7.51361C35.0037 7.31681 34.7595 7.20001 34.4995 7.20001ZM31.3629 16V16.8V16H22.6362L20.5912 8.80001H33.4079L31.3629 16Z" fill="white"/>
<path d="M24.5 10.4H26.1667V14.4H24.5V10.4ZM27.8333 10.4H29.5V14.4H27.8333V10.4Z" fill="white"/>
<line x1="6" y1="4" x2="6" y2="16" stroke="white" stroke-width="2"/>
<line x1="12" y1="10" y2="10" stroke="white" stroke-width="2"/>
</svg>
